PathFileType	4	(X/Y/Z)	C:/Users/beibeiliu/ov580/test_trc\sequence.1_training_dense_left.trc
DataRate	CameraRate	NumFrames	NumMarkers	Units	OrigDataRate	OrigDataStartFrame	OrigNumFrames
120	120	16	19	mm	120	57	84
Frame#	Time	ThumbCMC			ThumbMCP			ThumbIP			ThumbTip			IndexMCP			IndexPIP			IndexTip			MiddleMCP			MiddlePIP			MiddleTip			RingMCP			RingPIP			RingTip			PinkyMCP			PinkyPIP			PinkyTip			BackHand1			BackHand2			BackHand3	
		X0	Y0	Z0	X1	Y1	Z1	X2	Y2	Z2	X3	Y3	Z3	X4	Y4	Z4	X5	Y5	Z5	X6	Y6	Z6	X7	Y7	Z7	X8	Y8	Z8	X9	Y9	Z9	X10	Y10	Z10	X11	Y11	Z11	X12	Y12	Z12	X13	Y13	Z13	X14	Y14	Z14	X15	Y15	Z15	X16	Y16	Z16	X17	Y17	Z17	X18	Y18	Z18	
56	0.466667	-188.173	119.231	102.141	-162.646	107.667	104.14	-143.725	95.4635	98.5132	-128.256	87.0042	97.3963	-158.578	78.4313	60.9929	-141.201	61.1525	62.7505	-126.751	45.045	69.1801	-170.611	58.832	58.4	-153.999	36.931	64.9043	-143.202	17.8964	82.6508	-190.645	53.0519	64.5888	-172.601	28.7537	70.9613	-156.674	19.3929	85.7951	-210.217	48.4553	72.2275	-197.598	31.201	73.2869	-182.38	13.7647	83.7721	-220.896	85.4586	69.9957	-237.951	106.543	84.5243	-204.599	113.319	77.6134	
57	0.475	-204.081	123.297	102.68	-176.182	120.898	103.409	-152.425	111.986	97.0249	-134.458	109.041	95.6975	-154.869	90.5971	64.1441	-135.274	77.9868	66.8579	-114.789	69.2487	76.8175	-162.014	68.0912	63.5637	-141.618	56.8291	70.4907	-121.472	44.7443	94.2171	-172.915	55.1118	70.1902	-152.007	44.6874	78.8712	-138.176	41.2395	94.5753	-193.863	44.2118	79.3867	-174.761	31.233	85.2859	-157.901	24.6176	93.1017	-219.088	78.2349	75.3606	-237.93	95.2567	83.8334	-216.117	109.196	76.8947	
58	0.483333	-214.821	122.918	99.7367	-187.472	127.522	98.2186	-166.223	130.252	92.629	-144.077	131.284	87.5337	-161.881	101.956	60.4514	-137.342	98.9	61.8316	-110.51	97.0981	72.4225	-159.253	79.205	63.5595	-129.013	77.5758	71.6668	-107.733	76.7506	89.7229	-165.393	62.7719	71.9453	-138.654	61.0887	81.352	-123.61	65.702	94.4739	-176.056	45.9234	83.2372	-155.823	44.9619	86.9584	-134.098	45.7911	97.0418	-210.626	72.6919	75.0908	-237.039	76.2745	88.1269	-220.425	97.6408	75.4396	
59	0.491667	-224.494	112.993	96.9072	-200.929	127.446	90.2195	-181.959	135.739	81.1286	-161.817	141.271	73.4942	-167.451	109.817	50.6934	-144.126	118.437	50.0418	-124.629	121.107	56.0044	-156.302	86.7149	56.2548	-133.755	95.8574	58.1969	-109.577	101.616	74.474	-155.124	70.8075	67.9233	-131.807	81.9361	73.7532	-114.491	92.2096	88.4868	-163.427	53.1986	83.1285	-137.604	59.4127	85.9812	-124.278	69.4729	90.9293	-206.099	58.8737	80.1388	-227.817	58.1613	91.4005	-223.043	87.4629	74.9639	
60	0.5	-229.474	102.073	90.766	-213.136	120.487	78.6492	-195.799	134.589	62.3573	-181.752	141.083	53.9984	-181.781	102.253	41.5536	-160.165	115.141	32.9748	-136.427	131.216	34.58	-164.118	90.8148	43.9253	-142.042	102.192	42.0848	-119.093	124.321	50.203	-154.449	75.3252	59.4175	-132.525	91.22	60.7573	-122.799	110.254	68.2751	-154.077	61.3795	76.5685	-133.176	70.9644	76.3163	-118.74	86.8741	77.6252	-195.536	57.0862	77.0342	-218.141	51.5213	96.59	-218.144	71.4967	77.0497	
61	0.508333	-230.96	95.6828	84.0913	-222.109	115.458	66.9979	-210.996	127.002	49.5954	-197.202	136.759	33.463	-188.806	91.5729	30.7116	-171.879	107.439	15.5112	-158.03	128.846	10.1121	-168.979	85.9268	32.0854	-148.882	102.595	23.7878	-133.366	126.489	25.4931	-155.317	74.5596	51.5921	-139.593	95.7548	42.3785	-129.702	118.817	49.3914	-147.11	65.139	69.7636	-131.981	81.0756	61.7102	-127.127	101.858	59.5198	-188.404	55.0991	76.9477	-206.183	50.9517	97.1436	-221.194	65.8431	75.0915	
62	0.516667	-232.806	91.9688	81.5613	-227.029	107.857	55.9767	-220.108	115.536	39.7896	-207.762	122.382	18.6708	-197.644	82.0038	19.9687	-186.849	93.8896	2.60384	-170.767	115.969	-7.1018	-178.396	76.255	24.3151	-162.972	94.6755	5.93868	-146.671	116.764	3.43206	-160.179	72.6801	39.5525	-150.264	90.3822	24.8537	-142.6	117.82	25.7315	-151.126	67.252	60.2073	-136.799	81.983	47.1925	-133.598	105.483	40.2337	-191.858	54.8033	78.661	-203.885	54.7131	98.392	-218.182	62.5654	75.9459	
63	0.525	-234.067	88.2436	79.1983	-233.694	99.2032	52.5794	-227.458	102.117	31.5761	-216.136	105.444	10.7247	-207.036	67.6089	19.2352	-196.354	77.1255	-4.1314	-186.233	95.95	-19.2042	-184.921	63.0918	20.2033	-175.287	75.0972	-0.417663	-164.287	100.782	-12.494	-170.113	62.6799	36.9823	-159.757	78.2317	14.4752	-153.064	101.216	8.49644	-159.498	62.6692	55.2084	-144.079	73.8083	37.8101	-147.307	95.3513	23.8802	-193.323	54.8097	78.0905	-199.15	54.3663	104.208	-220.459	57.797	76.6074	
64	0.533333	-234.04	82.0099	79.0859	-236.653	90.6322	52.3732	-231.741	85.3688	24.5487	-219.48	84.2235	9.06853	-211.868	47.2578	23.5402	-203.202	51.005	-1.7329	-196.832	63.8331	-18.6663	-194.512	42.378	25.8659	-180.688	49.851	0.475669	-169.156	70.8576	-15.7816	-173.243	44.1462	39.7415	-165.368	52.4261	16.2768	-161.406	74.4488	1.64725	-164.205	50.813	55.8751	-151.157	56.0441	35.7183	-148.34	74.1079	21.6092	-194.315	48.9288	84.6411	-201.925	57.1808	107.363	-222.767	55.8965	83.6326	
65	0.541667	-236.417	77.7641	79.1367	-236.786	74.9141	48.2372	-232.318	71.2062	30.0458	-221.796	61.417	10.4128	-221.93	28.9122	38.9989	-210.106	21.9579	12.141	-199.271	28.1699	-11.6221	-202.867	19.7447	39.2152	-187.124	16.5045	14.8426	-173.456	27.7914	-4.90172	-185.574	23.6545	49.6151	-173.799	22.8844	25.4975	-164.355	36.1908	7.62796	-169.561	31.4188	63.1292	-155.929	32.0443	45.8007	-158.029	43.0023	23.7488	-200.308	43.7605	94.2654	-204.597	51.9708	113.507	-225.942	49.9583	93.3361	
66	0.55	-240.096	78.7455	78.3152	-242.533	75.972	49.8128	-236.772	63.8845	29.1353	-226.202	52.5242	10.4074	-234.425	22.623	46.5355	-226.733	8.44524	22.8279	-215.07	8.10736	-1.61888	-214.44	7.69282	50.3287	-208.506	-2.56691	28.6522	-188.32	1.65915	2.40555	-197.626	10.3635	60.8989	-186.714	-0.525836	39.8827	-179.963	4.56929	18.6914	-181.284	20.319	75.9747	-172.165	11.5325	55.2719	-162.734	17.2553	34.4175	-210.305	39.6408	99.4718	-211.083	53.356	115.599	-234.296	51.2016	96.9517	
67	0.558333	-243.669	83.6849	79.0234	-244.011	81.2658	50.9272	-242.623	68.2987	28.2073	-229.455	51.5606	14.937	-246.252	24.7096	49.7392	-245.01	10.4947	27.5051	-236.403	4.54193	3.64401	-231.472	9.00236	55.2036	-226.364	-7.48058	32.6157	-211.34	-11.8597	10.0119	-216.267	7.18071	66.1921	-209.879	-8.32471	43.1995	-201.829	-8.66705	21.8077	-196.394	10.0005	76.6313	-188.634	-0.910936	58.2033	-182.907	2.03342	35.2696	-220.857	37.8669	101.673	-220.098	53.8311	115.495	-241.737	55.6276	97.1316	
68	0.566667	-241.98	93.2465	81.0322	-243.037	92.2682	51.1517	-242.573	79.8319	33.0677	-235.874	63.1722	13.4382	-263.109	37.1488	45.4657	-263.183	21.481	21.9097	-253.378	14.7082	2.81994	-253.09	17.6939	53.6728	-251.783	1.97847	33.1544	-242.253	-5.13528	7.16773	-239.326	14.2639	65.008	-238.257	-3.58433	43.7011	-229.989	-10.6406	24.0478	-217.396	8.8269	77.6726	-216.787	-3.80548	57.5783	-212.315	-5.17876	36.3661	-235.269	39.5804	97.2043	-229.866	53.2166	118.627	-248.284	62.371	96.1158	
69	0.575	-233.721	99.7035	83.6724	-234.959	100.278	51.4802	-237.545	92.2142	30.0521	-234.491	77.2814	12.1413	-272.211	62.8354	38.5333	-272.849	47.6589	15.1511	-264.309	39.4063	-4.5452	-269.895	36.5309	44.7579	-272.753	23.8679	25.2397	-263.284	14.6157	-2.77411	-257.714	25.8692	58.9913	-263.035	12.8261	39.1291	-259.02	8.26713	15.3713	-242.67	15.782	71.7373	-245.361	5.61685	52.3172	-240.526	-0.689662	33.9578	-247.251	49.4213	97.5468	-237.67	60.2732	118.631	-252.563	76.1436	94.6459	
70	0.583333	-217.558	107.151	81.9446	-214.891	103.634	54.4355	-217.255	99.5918	29.4676	-221.684	85.9484	10.1769	-262.513	91.8938	30.9849	-265.956	85.1185	9.33337	-258.063	68.0521	-14.9627	-271.719	71.7045	36.2051	-279.119	59.2498	14.0552	-273.065	50.4887	-12.2338	-270.925	52.4719	50.9034	-278.526	45.3429	23.5731	-275.102	35.8962	1.02371	-264.896	35.1102	62.6389	-268.714	25.3981	46.5879	-264.664	22.6164	21.1219	-257.257	65.3353	89.0142	-244.552	75.4381	111.213	-247.042	93.561	90.6352	
71	0.591667	-200.276	103.08	79.9201	-189.364	98.9669	56.4596	-195.291	94.296	32.2958	-198.961	84.9319	9.68272	-239.225	104.503	25.6862	-239.451	99.318	-0.157752	-234.971	84.3198	-21.2124	-257.243	95.3195	29.5134	-263.007	89.7821	3.67878	-261.882	74.2671	-23.247	-266.103	80.0539	38.7209	-273.464	75.5552	19.6167	-274.107	64.9537	-7.31588	-267.805	61.4796	57.9102	-276.008	55.6905	35.7208	-275.744	49.244	12.6688	-253.297	85.2058	80.8451	-243.838	87.7769	105.998	-230.487	107.407	84.1776	
